<svg width="223" height="26" viewBox="0 0 223 26" fill="none" xmlns="http://www.w3.org/2000/svg">
<path d="M3.552 20.76V19.176C3.04 19.1227 2.544 18.984 2.064 18.76C1.584 18.5253 1.17333 18.2533 0.832 17.944L1.44 17.032C1.78133 17.3307 2.15467 17.5867 2.56 17.8C2.976 18.0027 3.42933 18.104 3.92 18.104C4.51733 18.104 4.96 17.9547 5.248 17.656C5.54667 17.3467 5.696 16.9467 5.696 16.456C5.696 16.0187 5.58933 15.6613 5.376 15.384C5.16267 15.1067 4.88533 14.8667 4.544 14.664C4.20267 14.4613 3.84 14.2693 3.456 14.088C3.08267 13.896 2.72533 13.688 2.384 13.464C2.04267 13.2293 1.76533 12.9413 1.552 12.6C1.33867 12.2587 1.232 11.8267 1.232 11.304C1.232 10.5893 1.44533 9.99733 1.872 9.528C2.29867 9.048 2.85867 8.75467 3.552 8.648V7.032H4.512V8.616C5.024 8.66933 5.456 8.808 5.808 9.032C6.17067 9.256 6.496 9.52267 6.784 9.832L6.08 10.616C5.78133 10.328 5.488 10.104 5.2 9.944C4.92267 9.784 4.56533 9.704 4.128 9.704C3.63733 9.704 3.248 9.84267 2.96 10.12C2.672 10.3973 2.528 10.7707 2.528 11.24C2.528 11.624 2.63467 11.944 2.848 12.2C3.06133 12.4453 3.33867 12.6587 3.68 12.84C4.02133 13.0213 4.37867 13.2027 4.752 13.384C5.136 13.5653 5.49867 13.7787 5.84 14.024C6.18133 14.2587 6.45867 14.5627 6.672 14.936C6.88533 15.3093 6.992 15.784 6.992 16.36C6.992 17.1173 6.768 17.7467 6.32 18.248C5.872 18.7387 5.26933 19.0373 4.512 19.144V20.76H3.552ZM9.21713 19V17.912H11.5531V10.392H9.69713V9.544C10.1665 9.45867 10.5718 9.35733 10.9131 9.24C11.2651 9.112 11.5798 8.96267 11.8571 8.792H12.8651V17.912H14.9771V19H9.21713ZM19.6503 19.192C18.8396 19.192 18.1676 19.048 17.6343 18.76C17.1009 18.472 16.6583 18.152 16.3063 17.8L16.9463 16.936C17.2556 17.2347 17.6129 17.5067 18.0182 17.752C18.4236 17.9867 18.9249 18.104 19.5223 18.104C20.1516 18.104 20.6796 17.896 21.1063 17.48C21.5436 17.0533 21.7623 16.4827 21.7623 15.768C21.7623 15.064 21.5649 14.5147 21.1703 14.12C20.7756 13.7253 20.2476 13.528 19.5863 13.528C19.2343 13.528 18.9303 13.5813 18.6743 13.688C18.4289 13.7947 18.1516 13.9493 17.8423 14.152L17.1383 13.704L17.4743 8.792H22.5783V9.928H18.6263L18.3543 12.952C18.5996 12.824 18.8449 12.7227 19.0903 12.648C19.3356 12.5733 19.6129 12.536 19.9223 12.536C20.5089 12.536 21.0369 12.6533 21.5063 12.888C21.9863 13.112 22.3703 13.4587 22.6583 13.928C22.9463 14.3973 23.0903 15 23.0903 15.736C23.0903 16.472 22.9249 17.1013 22.5943 17.624C22.2743 18.136 21.8529 18.5253 21.3303 18.792C20.8076 19.0587 20.2476 19.192 19.6503 19.192ZM27.8434 19.192C26.8194 19.192 26.014 18.7333 25.4274 17.816C24.8514 16.888 24.5634 15.5707 24.5634 13.864C24.5634 12.1467 24.8514 10.84 25.4274 9.944C26.014 9.048 26.8194 8.6 27.8434 8.6C28.8567 8.6 29.6514 9.048 30.2274 9.944C30.814 10.84 31.1074 12.1467 31.1074 13.864C31.1074 15.5707 30.814 16.888 30.2274 17.816C29.6514 18.7333 28.8567 19.192 27.8434 19.192ZM27.8434 18.136C28.4407 18.136 28.9207 17.8 29.2834 17.128C29.646 16.4453 29.8274 15.3573 29.8274 13.864C29.8274 12.3707 29.646 11.2987 29.2834 10.648C28.9207 9.98667 28.4407 9.656 27.8434 9.656C27.246 9.656 26.7607 9.98667 26.3874 10.648C26.0247 11.2987 25.8434 12.3707 25.8434 13.864C25.8434 15.3573 26.0247 16.4453 26.3874 17.128C26.7607 17.8 27.246 18.136 27.8434 18.136Z" fill="#112B3C"/>
<path d="M213.43 6.93L219.5 13L213.43 19.07" stroke="#F66B0E" stroke-width="1.5" stroke-miterlimit="10" stroke-linecap="round" stroke-linejoin="round"/>
<path d="M202.5 13H219.33" stroke="#F66B0E" stroke-width="1.5" stroke-miterlimit="10" stroke-linecap="round" stroke-linejoin="round"/>
</svg>
